<svg width="217" height="80" viewBox="0 0 217 80" fill="none" xmlns="http://www.w3.org/2000/svg">
<g clip-path="url(#clip0_722_534)">
<path d="M20.2977 79.6899L66.1272 0.310059" stroke="#D6D6D6" stroke-width="1.5" stroke-miterlimit="10"/>
<path d="M66.1272 79.6899L20.2977 0.310059" stroke="#D6D6D6" stroke-width="1.5" stroke-miterlimit="10"/>
<path d="M86.4248 40H0" stroke="#D6D6D6" stroke-width="1.5" stroke-miterlimit="10"/>
<path d="M43.2124 73.2711C61.639 73.2711 76.5767 58.3334 76.5767 39.9068C76.5767 21.4802 61.639 6.54248 43.2124 6.54248C24.7857 6.54248 9.84802 21.4802 9.84802 39.9068C9.84802 58.3334 24.7857 73.2711 43.2124 73.2711Z" stroke="#D6D6D6" stroke-width="1.5" stroke-miterlimit="10"/>
<path d="M9.84802 6.54248C18.6968 6.54248 27.1831 10.0576 33.4402 16.3147C39.6972 22.5717 43.2124 31.058 43.2124 39.9068C43.2124 48.7556 39.6972 57.2419 33.4402 63.499C27.1831 69.756 18.6968 73.2711 9.84802 73.2711" stroke="#D6D6D6" stroke-width="1.5" stroke-miterlimit="10"/>
<path d="M76.5767 73.2711C67.728 73.2711 59.2416 69.756 52.9846 63.499C46.7276 57.2419 43.2124 48.7556 43.2124 39.9068C43.2124 31.058 46.7276 22.5717 52.9846 16.3147C59.2416 10.0576 67.728 6.54248 76.5767 6.54248" stroke="#D6D6D6" stroke-width="1.5" stroke-miterlimit="10"/>
<path d="M78.1395 39.361L77.9845 39.0943L60.9054 9.54395H25.8481L8.31628 39.9315L25.8481 70.3191H60.9054L77.9473 40.7439L78.1085 40.4649L78.431 39.9067L78.1395 39.361ZM55.9752 60.0804H63.5659L59.7705 66.654L55.9752 60.0804ZM59.7767 13.1657L63.5845 19.7579H55.9752L59.7767 13.1657ZM61.5504 48.7501L65.6744 41.606L69.7984 48.7501H61.5504ZM69.1411 50.4246L65.3457 56.9982L61.5504 50.4246H69.1411ZM69.7984 31.0881L65.6744 38.2323L61.5504 31.0881H69.7984ZM61.5504 29.4137L65.3519 22.8277L69.1535 29.4137H61.5504ZM64.2233 39.0695H55.9752L60.0992 31.9253L64.2233 39.0695ZM64.2233 40.7688L60.0992 47.9129L55.9752 40.7688H64.2233ZM67.1256 40.7688H74.7163L70.9209 47.3424L67.1256 40.7688ZM67.1256 39.0695L70.9271 32.4835L74.7287 39.0695H67.1256ZM64.2233 21.4323L60.0992 28.5765L55.9752 21.4323H64.2233ZM58.6419 29.4137H50.4L54.524 22.2633L58.6419 29.4137ZM58.6419 31.0881L54.524 38.2323L50.4 31.0881H58.6419ZM53.0791 39.0695H44.8248L48.9488 31.9253L53.0791 39.0695ZM53.0791 40.7688L48.9488 47.9129L44.8248 40.7688H53.0791ZM54.524 41.606L58.6481 48.7501H50.4L54.524 41.606ZM58.6481 50.4246L54.524 57.5688L50.4 50.4246H58.6481ZM60.0992 51.2618L64.2233 58.406H55.9752L60.0992 51.2618ZM27.4543 67.4788L11.5349 39.9067L27.4543 12.3346H58.3318L54.524 18.9207L53.0791 21.4323L48.9488 28.5765L47.5039 31.0881L42.8775 39.0695L42.4 39.8943L42.8775 40.7191L47.5039 48.7501L48.9488 51.2308L53.0791 58.375L54.524 60.8556L58.2946 67.4788H27.4543Z" fill="#343434"/>
<path d="M94.5551 12.6948V10.3506H105.985V12.6948H94.5551ZM101.538 11.4173V24.5087H99.0574V11.4173H101.538Z" fill="#D6D6D6"/>
<path d="M110.065 24.5086H107.702V10.0962H110.084V16.1613C110.41 15.6873 110.855 15.3068 111.374 15.0574C111.953 14.7766 112.59 14.6363 113.234 14.6481C113.744 14.6051 114.257 14.682 114.732 14.8726C115.207 15.0632 115.63 15.3622 115.969 15.7458C116.576 16.5717 116.883 17.5806 116.837 18.6047V24.4962H114.474V19.1815C114.489 18.7596 114.424 18.3387 114.282 17.9412C114.177 17.6618 114.002 17.4141 113.774 17.2218C113.58 17.0675 113.356 16.9556 113.116 16.8931C112.904 16.8376 112.685 16.8084 112.465 16.8063C112.19 16.8076 111.917 16.8473 111.653 16.9241C111.369 16.9994 111.104 17.1348 110.877 17.321C110.624 17.52 110.421 17.7775 110.288 18.0714C110.129 18.441 110.053 18.8411 110.065 19.2435V24.5086Z" fill="#D6D6D6"/>
<path d="M118.555 19.7211C118.531 18.7942 118.731 17.8752 119.138 17.042C119.504 16.3105 120.072 15.6993 120.775 15.2808C121.517 14.854 122.363 14.6394 123.219 14.6606C124.064 14.6327 124.899 14.848 125.625 15.2808C126.302 15.704 126.841 16.3162 127.175 17.042C127.557 17.8693 127.746 18.7728 127.727 19.6839V20.4032H120.856C120.848 20.7265 120.905 21.048 121.025 21.3486C121.144 21.6491 121.323 21.9224 121.55 22.1521C121.782 22.365 122.054 22.5296 122.35 22.6361C122.646 22.7426 122.96 22.7889 123.274 22.7722C123.8 22.7858 124.319 22.648 124.769 22.3753C125.154 22.1558 125.442 21.7992 125.575 21.3769H127.752C127.621 22.0235 127.333 22.6281 126.915 23.1381C126.481 23.6511 125.936 24.0583 125.321 24.3288C124.65 24.6267 123.922 24.7768 123.188 24.7691C122.338 24.7885 121.499 24.574 120.763 24.149C120.062 23.7278 119.495 23.1173 119.126 22.3877C118.722 21.5583 118.526 20.6431 118.555 19.7211V19.7211ZM120.893 18.8901H125.364C125.377 18.4583 125.276 18.0308 125.073 17.6498C124.887 17.3246 124.611 17.0599 124.279 16.887C123.926 16.708 123.534 16.6186 123.138 16.6265C122.846 16.6144 122.554 16.6602 122.279 16.7614C122.005 16.8625 121.753 17.0169 121.538 17.2156C121.322 17.4363 121.154 17.6985 121.043 17.9864C120.932 18.2743 120.881 18.5818 120.893 18.8901Z" fill="#D6D6D6"/>
<path d="M141.284 24.7378C140.039 24.7668 138.81 24.4673 137.718 23.8696C136.686 23.2853 135.848 22.4124 135.305 21.358C134.696 20.1436 134.398 18.7968 134.437 17.4386C134.404 16.1009 134.703 14.7758 135.305 13.5812C135.86 12.5103 136.71 11.6212 137.755 11.02C138.864 10.3914 140.121 10.0723 141.395 10.096C142.409 10.0839 143.413 10.2957 144.335 10.7161C145.19 11.1138 145.936 11.7115 146.512 12.4587C147.09 13.2317 147.463 14.1384 147.597 15.0944H144.943C144.746 14.3114 144.267 13.6287 143.597 13.1781C142.919 12.7351 142.124 12.5061 141.315 12.5208C140.508 12.5005 139.713 12.716 139.026 13.1409C138.383 13.5591 137.873 14.1532 137.557 14.8525C137.193 15.6696 137.015 16.557 137.036 17.451C137.013 18.3491 137.198 19.2404 137.575 20.0556C137.899 20.7498 138.421 21.3325 139.076 21.7301C139.754 22.1287 140.529 22.3305 141.315 22.313C142.18 22.3266 143.03 22.085 143.758 21.6184C144.437 21.1943 144.951 20.5511 145.215 19.7952H147.808C147.643 20.7555 147.233 21.657 146.617 22.4122C146.004 23.1639 145.219 23.7572 144.329 24.1425C143.367 24.5526 142.329 24.7555 141.284 24.7378Z" fill="#343434"/>
<path d="M149.147 19.7024C149.129 18.7955 149.342 17.8989 149.767 17.0977C150.174 16.3515 150.782 15.7347 151.522 15.3179C152.336 14.8904 153.242 14.667 154.161 14.667C155.081 14.667 155.986 14.8904 156.8 15.3179C157.537 15.7367 158.143 16.3531 158.549 17.0977C158.974 17.8989 159.188 18.7955 159.169 19.7024C159.189 20.6094 158.975 21.5063 158.549 22.307C158.143 23.0535 157.538 23.672 156.8 24.0931C155.985 24.517 155.08 24.7384 154.161 24.7384C153.243 24.7384 152.337 24.517 151.522 24.0931C150.786 23.6782 150.181 23.066 149.774 22.3256C149.342 21.52 149.126 20.6162 149.147 19.7024V19.7024ZM151.547 19.7024C151.54 20.2286 151.65 20.7498 151.87 21.2279C152.071 21.6532 152.39 22.0124 152.788 22.2636C153.208 22.5034 153.683 22.6295 154.167 22.6295C154.651 22.6295 155.127 22.5034 155.547 22.2636C155.942 22.0103 156.258 21.6515 156.459 21.2279C156.679 20.7498 156.789 20.2286 156.781 19.7024C156.791 19.176 156.681 18.6543 156.459 18.1768C156.258 17.7546 155.942 17.3977 155.547 17.1473C155.127 16.9075 154.651 16.7814 154.167 16.7814C153.683 16.7814 153.208 16.9075 152.788 17.1473C152.39 17.3968 152.072 17.7538 151.87 18.1768C151.648 18.6543 151.538 19.176 151.547 19.7024Z" fill="#343434"/>
<path d="M163.609 24.5087H161.24V14.9397H163.423L163.622 16.6451L163.349 16.4095C163.581 15.868 163.984 15.4172 164.496 15.1258C165.029 14.809 165.638 14.6439 166.257 14.6482C167.056 14.6086 167.845 14.8403 168.496 15.3056C169.058 15.7477 169.462 16.3586 169.65 17.0482H169.24C169.382 16.3469 169.783 15.7248 170.363 15.3056C170.991 14.8571 171.749 14.6262 172.521 14.6482C173.008 14.6149 173.497 14.6849 173.956 14.8538C174.414 15.0226 174.832 15.2865 175.181 15.6281C175.81 16.353 176.135 17.2929 176.087 18.2513V24.5087H173.786V18.7971C173.823 18.2348 173.638 17.6804 173.271 17.2529C173.09 17.0747 172.875 16.9355 172.638 16.8438C172.401 16.7521 172.148 16.7098 171.895 16.7196C171.539 16.7141 171.187 16.7972 170.871 16.9614C170.555 17.1315 170.299 17.3959 170.14 17.718C169.941 18.1248 169.848 18.5745 169.867 19.0265V24.5087H167.541V18.7971C167.563 18.5179 167.529 18.2371 167.442 17.971C167.355 17.7049 167.215 17.4587 167.033 17.2467C166.854 17.0691 166.641 16.9305 166.406 16.8398C166.171 16.749 165.92 16.7081 165.668 16.7196C165.307 16.7169 164.951 16.8043 164.633 16.9738C164.317 17.147 164.06 17.4104 163.895 17.7304C163.697 18.1263 163.603 18.5659 163.622 19.0079L163.609 24.5087Z" fill="#343434"/>
<path d="M181.085 24.5083H178.704V14.9393H180.887L181.085 16.6447L180.812 16.409C181.049 15.8683 181.453 15.4182 181.966 15.1253C182.496 14.8085 183.103 14.6433 183.721 14.6478C184.522 14.6092 185.312 14.8407 185.966 15.3052C186.526 15.7476 186.928 16.3587 187.113 17.0478H186.704C186.848 16.3474 187.248 15.726 187.826 15.3052C188.455 14.8574 189.213 14.6267 189.984 14.6478C190.472 14.6132 190.961 14.6827 191.42 14.8516C191.879 15.0206 192.296 15.2851 192.645 15.6276C193.276 16.3516 193.603 17.2916 193.557 18.2509V24.5083H191.256V18.7966C191.293 18.2344 191.108 17.6799 190.741 17.2525C190.56 17.0743 190.345 16.9351 190.108 16.8434C189.871 16.7516 189.618 16.7094 189.364 16.7191C189.008 16.7136 188.657 16.7967 188.341 16.961C188.026 17.1327 187.77 17.3967 187.609 17.7176C187.414 18.1254 187.321 18.5743 187.336 19.0261V24.5083H185.011V18.7966C185.053 18.234 184.873 17.6772 184.509 17.2462C184.328 17.07 184.113 16.9324 183.877 16.8417C183.642 16.7511 183.39 16.7094 183.138 16.7191C182.779 16.7156 182.425 16.8031 182.109 16.9734C181.79 17.1444 181.53 17.4082 181.364 17.73C181.17 18.1269 181.076 18.5657 181.091 19.0075L181.085 24.5083Z" fill="#343434"/>
<path d="M195.473 19.7024C195.451 18.7952 195.665 17.8979 196.093 17.0977C196.494 16.354 197.096 15.7374 197.829 15.3179C198.643 14.8904 199.549 14.667 200.468 14.667C201.387 14.667 202.293 14.8904 203.107 15.3179C203.843 15.7368 204.446 16.3534 204.85 17.0977C205.278 17.8979 205.491 18.7952 205.47 19.7024C205.493 20.6097 205.279 21.5075 204.85 22.307C204.446 23.0531 203.843 23.6717 203.107 24.0931C202.292 24.517 201.387 24.7384 200.468 24.7384C199.55 24.7384 198.644 24.517 197.829 24.0931C197.1 23.6754 196.501 23.0636 196.099 22.3256C195.664 21.5211 195.448 20.6165 195.473 19.7024V19.7024ZM197.873 19.7024C197.862 20.2288 197.973 20.7507 198.195 21.2279C198.397 21.6532 198.715 22.0124 199.113 22.2636C199.533 22.5034 200.009 22.6295 200.493 22.6295C200.977 22.6295 201.452 22.5034 201.873 22.2636C202.271 22.0124 202.589 21.6532 202.791 21.2279C203.013 20.7507 203.124 20.2288 203.113 19.7024C203.126 19.1757 203.015 18.6534 202.791 18.1768C202.594 17.7541 202.279 17.3968 201.885 17.1473C201.465 16.9075 200.989 16.7814 200.505 16.7814C200.021 16.7814 199.546 16.9075 199.126 17.1473C198.728 17.3968 198.41 17.7538 198.208 18.1768C197.979 18.6523 197.864 19.1747 197.873 19.7024V19.7024Z" fill="#343434"/>
<path d="M209.854 24.5083H207.491V14.9394H209.681L209.873 16.1797C210.189 15.6865 210.638 15.293 211.169 15.0448C211.733 14.7795 212.35 14.6439 212.974 14.6479C213.489 14.6029 214.008 14.6786 214.489 14.8692C214.971 15.0597 215.401 15.3598 215.746 15.7456C216.36 16.5687 216.671 17.5785 216.626 18.6045V24.4959H214.264V19.1812C214.276 18.7595 214.21 18.3392 214.071 17.9409C213.966 17.6615 213.791 17.4138 213.563 17.2215C213.367 17.0671 213.141 16.9552 212.899 16.8928C212.676 16.8377 212.447 16.8086 212.217 16.806C211.948 16.8101 211.681 16.8519 211.423 16.93C211.144 17.0176 210.883 17.1564 210.654 17.3393C210.403 17.5477 210.205 17.8136 210.078 18.1145C209.917 18.5078 209.841 18.9303 209.854 19.3549V24.5083Z" fill="#343434"/>
<path d="M94.983 40.0744C94.9549 38.7511 95.2531 37.4412 95.8512 36.2604C96.4051 35.1749 97.2542 34.2678 98.3008 33.6434C99.3098 33.0884 100.431 32.7678 101.581 32.7056C102.731 32.6433 103.88 32.8409 104.943 33.2837C105.781 33.6575 106.515 34.2301 107.082 34.9519C107.647 35.6871 108.003 36.5613 108.112 37.4821H105.6C105.382 36.7156 104.893 36.0544 104.223 35.6217C103.546 35.2032 102.762 34.988 101.966 35.0015C101.146 34.9708 100.336 35.1843 99.6385 35.6149C98.9406 36.0455 98.3865 36.6739 98.0465 37.4201C97.6649 38.2671 97.4783 39.1891 97.5008 40.1178C97.4729 41.037 97.6665 41.9495 98.0651 42.7783C98.4092 43.4738 98.9534 44.0504 99.6279 44.4341C100.327 44.8177 101.113 45.0122 101.91 44.9984C102.372 45.0031 102.831 44.9404 103.274 44.8124C103.667 44.6994 104.041 44.5302 104.385 44.3101C104.7 44.1044 104.986 43.8561 105.234 43.5721C105.691 43.0596 105.944 42.398 105.947 41.7116V40.1612L107.138 41.3395H101.637V39.1442H108.273V47.1318H106.164L105.947 44.8434L106.22 45.1969C105.976 45.6472 105.63 46.0339 105.209 46.3256C104.72 46.6704 104.175 46.9265 103.597 47.0821C102.959 47.2584 102.299 47.346 101.637 47.3426C100.419 47.3693 99.2167 47.0581 98.1644 46.4434C97.1581 45.8402 96.3449 44.9625 95.8202 43.9132C95.2348 42.7201 94.9475 41.4029 94.983 40.0744V40.0744Z" fill="#343434"/>
<path d="M114.202 47.3613C113.713 47.3894 113.225 47.3082 112.773 47.1236C112.32 46.9391 111.914 46.6559 111.584 46.2947C110.953 45.5126 110.629 44.5268 110.673 43.5226V37.5381H113.048V42.6916C112.966 43.4132 113.174 44.1379 113.625 44.7071C114.027 45.0738 114.557 45.2676 115.101 45.2466C115.419 45.2757 115.739 45.2278 116.035 45.1069C116.331 44.986 116.593 44.7957 116.8 44.552C117.185 43.96 117.37 43.26 117.327 42.5551V37.5381H119.69V47.1319H117.47L117.315 45.8916C116.993 46.3601 116.549 46.7312 116.031 46.9644C115.46 47.2361 114.834 47.3719 114.202 47.3613V47.3613Z" fill="#343434"/>
<path d="M123.51 35.5843C123.323 35.5895 123.138 35.5558 122.965 35.4853C122.792 35.4149 122.635 35.3092 122.505 35.175C122.374 35.0423 122.27 34.8843 122.201 34.7106C122.131 34.537 122.098 34.3511 122.102 34.1641C122.1 33.9811 122.134 33.7995 122.204 33.6301C122.273 33.4607 122.376 33.307 122.505 33.1781C122.702 32.9807 122.952 32.8459 123.224 32.7907C123.497 32.7355 123.78 32.7623 124.038 32.8678C124.295 32.9733 124.516 33.1528 124.671 33.3835C124.827 33.6142 124.91 33.8859 124.912 34.1641C124.916 34.3516 124.882 34.5381 124.812 34.712C124.741 34.8859 124.636 35.0434 124.502 35.175C124.374 35.3076 124.219 35.4124 124.049 35.4828C123.878 35.5532 123.695 35.5878 123.51 35.5843V35.5843ZM122.319 47.1315V37.5377H124.701V47.1315H122.319Z" fill="#343434"/>
<path d="M129.755 47.1315H127.374V32.6943H129.755V47.1315Z" fill="#343434"/>
<path d="M136.329 47.361C135.482 47.388 134.645 47.1729 133.916 46.7409C133.243 46.3138 132.703 45.7055 132.36 44.9858C131.973 44.171 131.781 43.2769 131.802 42.375C131.784 41.4613 131.975 40.5556 132.36 39.7269C132.705 38.9789 133.259 38.3461 133.954 37.9036C134.703 37.4575 135.562 37.2298 136.434 37.2463C137.077 37.2416 137.713 37.3815 138.295 37.6556C138.831 37.8934 139.286 38.2837 139.603 38.7781V32.6943H141.923V47.1315H139.795L139.64 45.6184C139.343 46.1875 138.868 46.6445 138.288 46.9207C137.678 47.2159 137.007 47.3665 136.329 47.361V47.361ZM136.856 45.1905C137.357 45.1999 137.851 45.0757 138.288 44.8308C138.699 44.5884 139.029 44.2303 139.237 43.8013C139.466 43.328 139.578 42.8073 139.566 42.2819C139.58 41.7565 139.467 41.2354 139.237 40.7626C139.024 40.3391 138.698 39.9829 138.295 39.7331C137.861 39.4785 137.365 39.3497 136.862 39.361C136.359 39.3464 135.862 39.4754 135.43 39.7331C135.031 39.9859 134.712 40.3474 134.512 40.775C134.301 41.2504 134.192 41.7648 134.192 42.285C134.192 42.8052 134.301 43.3197 134.512 43.7951C134.71 44.2192 135.029 44.5752 135.43 44.8184C135.86 45.0749 136.355 45.2039 136.856 45.1905V45.1905Z" fill="#343434"/>
<path d="M94.8837 64.8991C94.8651 63.9923 95.0785 63.0957 95.5039 62.2945C95.9103 61.5483 96.5185 60.9315 97.2589 60.5146C98.0728 60.0871 98.9784 59.8638 99.8977 59.8638C100.817 59.8638 101.723 60.0871 102.536 60.5146C103.274 60.9334 103.88 61.5499 104.285 62.2945C104.697 63.101 104.911 63.9936 104.911 64.8991C104.911 65.8046 104.697 66.6972 104.285 67.5038C103.88 68.2503 103.274 68.8688 102.536 69.2898C101.721 69.7138 100.816 69.9351 99.8977 69.9351C98.979 69.9351 98.0739 69.7138 97.2589 69.2898C96.518 68.8708 95.9099 68.2519 95.5039 67.5038C95.0772 66.7031 94.8637 65.8062 94.8837 64.8991V64.8991ZM97.2837 64.8991C97.2756 65.4234 97.3858 65.9428 97.6062 66.4185C97.8068 66.8461 98.1252 67.2075 98.524 67.4604C98.9444 67.7002 99.42 67.8263 99.9039 67.8263C100.388 67.8263 100.863 67.7002 101.284 67.4604C101.68 67.2066 101.997 66.8453 102.195 66.4185C102.414 65.9423 102.522 65.4229 102.512 64.8991C102.522 64.3713 102.414 63.8478 102.195 63.3674C102.026 63.0545 101.796 62.7789 101.518 62.557C101.24 62.3351 100.92 62.1716 100.577 62.0761C100.234 61.9806 99.876 61.9551 99.5233 62.0011C99.1705 62.0472 98.8307 62.1638 98.524 62.3441C98.1278 62.5919 97.8097 62.9466 97.6062 63.3674C97.3916 63.8488 97.2877 64.3722 97.3023 64.8991H97.2837Z" fill="#D6D6D6"/>
<path d="M105.755 60.1551H111.802V62.1086H105.755V60.1551ZM111.82 55.4109V57.4264H111.008C110.79 57.3971 110.568 57.42 110.361 57.4934C110.154 57.5667 109.968 57.6883 109.817 57.8481C109.609 58.1911 109.507 58.5883 109.526 58.9892V69.7055H107.144V58.9706C107.111 58.2379 107.263 57.5087 107.584 56.8497C107.861 56.3338 108.295 55.9207 108.825 55.6714C109.394 55.408 110.015 55.2786 110.642 55.2931H111.262C111.45 55.3121 111.637 55.3453 111.82 55.3923V55.4109Z" fill="#D6D6D6"/>
<path d="M120.155 69.7055H117.575L122.729 55.5474H125.271L130.425 69.7055H127.789L126.642 66.4311H121.302L120.155 69.7055ZM123.702 59.783L122.047 64.3722H125.947L124.31 59.783C124.242 59.597 124.18 59.4109 124.124 59.2063C124.068 59.0016 124.025 58.8404 124 58.6978C123.977 58.869 123.944 59.0388 123.901 59.2063C123.848 59.3989 123.782 59.5875 123.702 59.7706V59.783Z" fill="#343434"/>
<path d="M137.823 60.0993V62.152H136.887C136.519 62.129 136.151 62.1847 135.807 62.3151C135.463 62.4456 135.15 62.6479 134.89 62.9086C134.38 63.5029 134.124 64.2733 134.177 65.0543V69.7055H131.795V60.1551H133.984L134.158 61.7241H133.953C134.05 61.241 134.33 60.8142 134.735 60.5334C135.167 60.2441 135.663 60.0652 136.18 60.0125C136.728 59.9377 137.286 59.9672 137.823 60.0993Z" fill="#343434"/>
<path d="M138.76 60.1549H144.806V62.1084H138.76V60.1549ZM142.958 69.7238H140.614V57.1533H142.958V69.7238Z" fill="#343434"/>
<path d="M147.318 58.1769C147.132 58.1833 146.946 58.1508 146.773 58.0814C146.6 58.012 146.443 57.9072 146.313 57.7738C146.182 57.6408 146.08 57.4827 146.011 57.309C145.943 57.1353 145.911 56.9495 145.916 56.763C145.913 56.5804 145.946 56.3989 146.014 56.2295C146.082 56.0601 146.184 55.9062 146.313 55.7769C146.443 55.6435 146.6 55.5388 146.773 55.4694C146.946 55.4 147.132 55.3674 147.318 55.3738C147.502 55.3714 147.684 55.4055 147.855 55.4742C148.026 55.5429 148.181 55.6448 148.312 55.7741C148.443 55.9033 148.547 56.0573 148.618 56.227C148.689 56.3968 148.726 56.579 148.726 56.763C148.73 56.9505 148.696 57.137 148.626 57.3109C148.555 57.4848 148.45 57.6423 148.316 57.7738C148.186 57.9055 148.03 58.0092 147.859 58.0786C147.687 58.1479 147.503 58.1814 147.318 58.1769V58.1769ZM146.127 69.7056V60.1552H148.509V69.7056H146.127Z" fill="#343434"/>
<path d="M150.344 66.8403H152.509C152.495 67.0237 152.526 67.2077 152.599 67.3763C152.673 67.545 152.786 67.6931 152.93 67.8077C153.293 68.0604 153.73 68.1828 154.171 68.155C154.444 68.1596 154.716 68.1198 154.977 68.0372C155.2 67.9735 155.401 67.8464 155.554 67.6713C155.699 67.4982 155.777 67.2775 155.771 67.0512C155.776 66.9286 155.753 66.8065 155.705 66.6938C155.657 66.5811 155.584 66.4807 155.492 66.4C155.279 66.2229 155.025 66.1015 154.754 66.0465L153.073 65.6186C152.316 65.4669 151.624 65.0833 151.095 64.5209C150.696 64.0612 150.476 63.4736 150.474 62.8651C150.461 62.2996 150.626 61.7442 150.946 61.2775C151.27 60.8159 151.714 60.4514 152.23 60.2232C152.814 59.96 153.449 59.8308 154.09 59.845C155.023 59.7988 155.939 60.0992 156.664 60.6884C156.988 60.9687 157.248 61.3152 157.426 61.7046C157.605 62.0941 157.698 62.5173 157.699 62.9457H155.535C155.544 62.7623 155.511 62.5792 155.44 62.4098C155.37 62.2403 155.262 62.0887 155.126 61.9659C154.824 61.7183 154.442 61.5902 154.053 61.6062C153.688 61.5859 153.327 61.6958 153.036 61.9163C152.916 62.0141 152.82 62.1383 152.755 62.2791C152.691 62.42 152.659 62.5738 152.664 62.7287C152.655 62.8643 152.682 62.9998 152.74 63.1224C152.799 63.245 152.888 63.3507 152.999 63.4294C153.264 63.6051 153.561 63.7293 153.873 63.7953L155.572 64.2232C156.259 64.358 156.891 64.6924 157.389 65.1845C157.813 65.6514 158.035 66.2663 158.009 66.8961C158.025 67.3239 157.938 67.7491 157.755 68.1364C157.573 68.5237 157.301 68.8618 156.961 69.1225C156.165 69.7043 155.193 69.9974 154.208 69.9535C153.216 70.0049 152.239 69.704 151.448 69.1039C151.107 68.8325 150.831 68.4885 150.64 68.0969C150.449 67.7053 150.348 67.276 150.344 66.8403V66.8403Z" fill="#343434"/>
<path d="M162.791 69.9534C161.909 70.0027 161.043 69.7094 160.372 69.1348C160.081 68.8566 159.853 68.5198 159.702 68.1466C159.552 67.7735 159.482 67.3726 159.498 66.9705C159.475 66.5618 159.552 66.1537 159.722 65.7811C159.891 65.4086 160.148 65.0826 160.471 64.831C161.234 64.2961 162.133 63.9906 163.064 63.9503L165.817 63.7209V63.5038C165.836 63.1309 165.752 62.7599 165.575 62.431C165.413 62.1697 165.169 61.9692 164.881 61.8604C164.543 61.7369 164.186 61.678 163.826 61.6868C163.286 61.6535 162.751 61.8044 162.307 62.1147C162.129 62.2486 161.988 62.4249 161.896 62.6275C161.804 62.8301 161.764 63.0524 161.78 63.2744H159.746C159.733 62.637 159.917 62.0111 160.273 61.4821C160.65 60.953 161.165 60.5369 161.761 60.279C162.449 59.9778 163.194 59.8297 163.944 59.8449C164.737 59.819 165.524 59.985 166.239 60.3286C166.841 60.6394 167.334 61.1261 167.653 61.724C167.991 62.3965 168.157 63.1422 168.136 63.8945V69.7054H166.053L165.873 68.2914C165.644 68.8072 165.246 69.2294 164.744 69.4883C164.145 69.8115 163.471 69.9718 162.791 69.9534V69.9534ZM163.554 68.1736C163.916 68.1712 164.275 68.0952 164.608 67.9503C164.965 67.7977 165.27 67.5459 165.488 67.2248C165.741 66.805 165.862 66.3188 165.836 65.8294V65.3271L163.826 65.5007C163.3 65.5103 162.786 65.6672 162.344 65.9534C162.207 66.0644 162.097 66.2055 162.023 66.3657C161.949 66.5259 161.912 66.701 161.916 66.8775C161.906 67.0592 161.94 67.2408 162.014 67.4069C162.089 67.5731 162.202 67.719 162.344 67.8325C162.696 68.083 163.123 68.2036 163.554 68.1736V68.1736Z" fill="#343434"/>
<path d="M172.98 69.7056H170.617V60.1552H172.8L172.998 61.3955C173.315 60.9024 173.764 60.5089 174.295 60.2606C174.864 59.9824 175.49 59.8401 176.124 59.8451C176.64 59.8011 177.158 59.8773 177.639 60.0678C178.12 60.2583 178.551 60.5578 178.896 60.9428C179.513 61.7693 179.824 62.784 179.777 63.8141V69.7056H177.364V64.3785C177.378 63.9561 177.311 63.535 177.166 63.1382C177.065 62.8567 176.889 62.608 176.657 62.4188C176.464 62.2633 176.24 62.1511 176 62.0901C175.775 62.0315 175.544 62.0023 175.312 62.0033C175.045 62.0079 174.78 62.0496 174.524 62.1273C174.243 62.211 173.981 62.3502 173.755 62.5366C173.503 62.7449 173.305 63.0108 173.178 63.3118C173.018 63.7051 172.942 64.1276 172.955 64.5521L172.98 69.7056Z" fill="#343434"/>
<path d="M181.371 66.8403H183.566C183.551 67.0238 183.582 67.2082 183.655 67.377C183.729 67.5458 183.843 67.6938 183.988 67.8077C184.35 68.0608 184.787 68.1833 185.228 68.155C185.503 68.16 185.778 68.1202 186.04 68.0372C186.264 67.9735 186.464 67.8464 186.617 67.6713C186.761 67.4976 186.836 67.2768 186.828 67.0511C186.834 66.9291 186.813 66.8071 186.766 66.6944C186.719 66.5816 186.647 66.481 186.555 66.4C186.342 66.2229 186.089 66.1015 185.817 66.0465L184.136 65.6186C183.379 65.4669 182.688 65.0833 182.158 64.5209C181.76 64.0612 181.539 63.4736 181.538 62.8651C181.525 62.3006 181.688 61.746 182.003 61.2775C182.331 60.8167 182.776 60.4526 183.293 60.2232C183.877 59.96 184.513 59.8308 185.154 59.845C186.086 59.7988 187.003 60.0992 187.727 60.6884C188.051 60.9687 188.311 61.3152 188.49 61.7046C188.669 62.0941 188.762 62.5173 188.763 62.9457H186.598C186.607 62.7623 186.575 62.5792 186.504 62.4098C186.433 62.2403 186.326 62.0887 186.189 61.9659C185.888 61.7183 185.506 61.5902 185.116 61.6062C184.751 61.5859 184.391 61.6958 184.099 61.9163C183.979 62.0141 183.883 62.1383 183.819 62.2791C183.754 62.42 183.723 62.5738 183.727 62.7287C183.719 62.8643 183.745 62.9998 183.804 63.1224C183.862 63.245 183.951 63.3507 184.062 63.4294C184.327 63.6065 184.624 63.7307 184.936 63.7953L186.636 64.2232C187.322 64.3594 187.954 64.6935 188.453 65.1845C188.876 65.6514 189.099 66.2663 189.073 66.8961C189.089 67.3246 189.001 67.7505 188.818 68.138C188.634 68.5255 188.36 68.8631 188.019 69.1225C187.226 69.7075 186.255 70.001 185.271 69.9535C184.278 70.0037 183.299 69.7029 182.505 69.1039C182.16 68.835 181.878 68.4922 181.682 68.1005C181.485 67.7089 181.379 67.2783 181.371 66.8403V66.8403Z" fill="#343434"/>
</g>
<defs>
<clipPath id="clip0_722_534">
<rect width="216.626" height="80" fill="white"/>
</clipPath>
</defs>
</svg>
